<?xml version="1.0" encoding="utf-8"?>
<svg xmlns="http://www.w3.org/2000/svg" viewBox="0 0 100 100" width="500" height="500">
  <path fill="#f1bc19" d="M77 12A1 1 0 1 0 77 14A1 1 0 1 0 77 12Z" />
  <path fill="#e6edb7" d="M50 13A37 37 0 1 0 50 87A37 37 0 1 0 50 13Z" />
  <path fill="#f1bc19" d="M83 11A4 4 0 1 0 83 19A4 4 0 1 0 83 11Z" />
  <path fill="#88ae45" d="M87 22A2 2 0 1 0 87 26A2 2 0 1 0 87 22Z" />
  <path fill="#fbcd59" d="M81 74A2 2 0 1 0 81 78 2 2 0 1 0 81 74zM15 59A4 4 0 1 0 15 67 4 4 0 1 0 15 59z" />
  <path fill="#88ae45" d="M25 85A2 2 0 1 0 25 89A2 2 0 1 0 25 85Z" />
  <path fill="#fff" d="M18.5 49A2.5 2.5 0 1 0 18.5 54 2.5 2.5 0 1 0 18.5 49zM79.5 32A1.5 1.5 0 1 0 79.5 35 1.5 1.5 0 1 0 79.5 32z" />
  <g>
    <path fill="#00a5a5" d="M66.565 56.013L36.769 57.589 34.036 38.436 70.391 38.579z" />
    <path fill="#472b29" d="M36.769,58.335c-0.369,0-0.685-0.272-0.738-0.642l-2.733-19.153 c-0.031-0.214,0.033-0.432,0.176-0.596c0.142-0.162,0.348-0.256,0.563-0.256c0.001,0,0.002,0,0.003,0l36.357,0.144 c0.225,0.001,0.438,0.104,0.579,0.28s0.195,0.406,0.146,0.627l-3.827,17.433c-0.071,0.328-0.354,0.567-0.689,0.585 l-29.795,1.577C36.796,58.334,36.782,58.335,36.769,58.335z M34.897,39.186l2.515,17.622l28.546-1.511l3.507-15.975 L34.897,39.186z M66.565,56.013h0.011H66.565z" />
    <path fill="#472b29" d="M43.307,39.219c-0.001,0-0.002,0-0.003,0l-9.271-0.036c-0.369-0.002-0.681-0.273-0.735-0.639 l-0.468-3.185c-0.45-4.652-2.823-4.874-2.924-4.881c-0.406-0.029-0.721-0.378-0.699-0.785c0.022-0.398,0.344-0.707,0.738-0.707 c0.01,0,0.019,0,0.028,0.001c0.154,0.005,3.76,0.206,4.338,6.193l0.371,2.514l7.876,0.03l-0.01-2.075 c0.097-2.267-0.356-3.923-1.346-4.957c-1.023-1.068-2.306-1.098-2.318-1.098l-8.585-0.649c-0.41-0.031-0.719-0.39-0.688-0.801 c0.031-0.411,0.396-0.708,0.801-0.689l8.528,0.647c0.018-0.007,1.863,0.016,3.339,1.557c1.284,1.339,1.875,3.364,1.76,6.019 l0.015,2.792c0,0.199-0.078,0.389-0.219,0.531C43.695,39.14,43.504,39.219,43.307,39.219z" />
    <path fill="#ef9922" d="M30.437,27.4h-3.076c-0.639,0.002-1.162,0.505-1.099,1.119v0.744 c0.072,0.602,0.507,0.811,1.099,0.811h3.076V27.4z" />
    <path fill="#472b29" d="M30.437,30.475h-3.076c-1.179,0-1.443-0.729-1.496-1.163l-0.002-0.793 c-0.037-0.346,0.086-0.722,0.35-1.015c0.286-0.318,0.704-0.502,1.147-0.504h3.078c0.221,0,0.4,0.179,0.4,0.4v2.676 C30.836,30.296,30.657,30.475,30.437,30.475z M27.361,27.8c-0.216,0.001-0.419,0.088-0.554,0.24 c-0.079,0.087-0.167,0.235-0.147,0.439l0.002,0.786c0.023,0.174,0.102,0.411,0.699,0.411h2.676V27.8H27.361z" />
    <path fill="#c0e5e4" d="M44.529,66.505c0.324,0.385,0.537,0.855,0.593,1.377c0.161,1.51-1.059,2.876-2.723,3.054 c-1.665,0.178-3.145-0.902-3.306-2.411c-0.1-0.943,0.338-1.831,1.087-2.407" />
    <path fill="#472b29" d="M42.037,71.355c-0.761,0-1.491-0.232-2.091-0.669c-0.716-0.522-1.161-1.274-1.252-2.117 c-0.111-1.049,0.353-2.083,1.242-2.767c0.175-0.135,0.425-0.101,0.561,0.072c0.134,0.175,0.101,0.425-0.074,0.56 c-0.666,0.513-1.016,1.279-0.933,2.049c0.066,0.616,0.394,1.169,0.927,1.557c0.544,0.396,1.229,0.572,1.938,0.498 c0.707-0.075,1.342-0.393,1.79-0.895c0.438-0.493,0.644-1.102,0.578-1.717c-0.045-0.424-0.219-0.826-0.501-1.163 c-0.142-0.168-0.12-0.421,0.049-0.563c0.168-0.141,0.421-0.118,0.563,0.049c0.385,0.458,0.622,1.008,0.684,1.592 c0.09,0.843-0.185,1.673-0.776,2.335c-0.581,0.65-1.399,1.063-2.303,1.159C42.306,71.348,42.171,71.355,42.037,71.355z" />
    <path fill="#f1bc19" d="M43.355,68.353c-1.444,1.158-2.649,0.926-2.649,0.926l-0.482-5.094h4.335 C44.559,64.186,44.8,67.195,43.355,68.353z" />
    <path fill="#472b29" d="M40.976,69.697c-0.206,0-0.329-0.022-0.345-0.026c-0.175-0.033-0.306-0.178-0.323-0.355 l-0.482-5.093c-0.011-0.112,0.027-0.223,0.102-0.306c0.076-0.083,0.183-0.131,0.295-0.131h4.335 c0.208,0,0.382,0.16,0.399,0.368c0.011,0.132,0.24,3.235-1.353,4.512C42.487,69.561,41.482,69.697,40.976,69.697z M40.663,64.586l0.407,4.312c0.396-0.016,1.155-0.154,2.034-0.857c0.914-0.732,1.084-2.498,1.071-3.455H40.663z" />
    <path fill="#fdfcee" d="M42.263 66.52600000000001A0.348 0.335 0 1 0 42.263 67.196A0.348 0.335 0 1 0 42.263 66.52600000000001Z" />
    <path fill="#472b29" d="M42.263,66.527c0.192,0,0.348,0.149,0.348,0.335c0,0.184-0.156,0.335-0.348,0.335 c-0.192,0-0.348-0.149-0.348-0.335C41.916,66.676,42.071,66.527,42.263,66.527 M42.263,65.994 c-0.486,0-0.881,0.389-0.881,0.868c0,0.479,0.396,0.868,0.881,0.868c0.486,0,0.881-0.389,0.881-0.868 S42.75,65.994,42.263,65.994L42.263,65.994z" />
    <path fill="#c0e5e4" d="M63.067,66.655c0.29,0.429,0.456,0.934,0.456,1.473c0,1.562-1.397,2.827-3.118,2.827 c-1.722,0-3.118-1.265-3.118-2.827c0-0.975,0.546-1.836,1.375-2.344" />
    <path fill="#472b29" d="M60.405,71.355c-1.94,0-3.518-1.448-3.518-3.227c0-1.081,0.585-2.084,1.566-2.684 c0.19-0.117,0.435-0.057,0.55,0.131c0.115,0.189,0.057,0.435-0.132,0.55c-0.741,0.454-1.183,1.202-1.183,2.003 c0,1.339,1.22,2.427,2.718,2.427s2.718-1.088,2.718-2.427c0-0.441-0.134-0.873-0.388-1.249 c-0.124-0.183-0.075-0.432,0.108-0.555c0.184-0.126,0.432-0.075,0.555,0.108c0.343,0.51,0.524,1.096,0.524,1.697 C63.923,69.906,62.346,71.355,60.405,71.355z" />
    <path fill="#f1bc19" d="M61.935,67.685c-1.444,1.158-2.649,0.926-2.649,0.926l-0.482-5.095h4.335 C63.139,63.516,63.38,66.527,61.935,67.685z" />
    <path fill="#472b29" d="M59.555,69.028c-0.204,0-0.327-0.022-0.343-0.025c-0.175-0.033-0.306-0.178-0.323-0.355 l-0.482-5.094c-0.011-0.112,0.027-0.223,0.102-0.306c0.076-0.083,0.183-0.131,0.295-0.131h4.335 c0.208,0,0.382,0.16,0.399,0.368c0.011,0.132,0.24,3.235-1.353,4.512C61.066,68.893,60.061,69.028,59.555,69.028z M59.244,63.916l0.407,4.313c0.396-0.017,1.155-0.155,2.034-0.858c0.914-0.732,1.084-2.498,1.071-3.455H59.244z" />
    <path fill="#fdfcee" d="M61.331,66.385c-0.111,0.15-0.328,0.187-0.485,0.08c-0.157-0.107-0.194-0.316-0.083-0.466 c0.111-0.15,0.328-0.187,0.485-0.08C61.404,66.026,61.442,66.235,61.331,66.385z" />
    <path fill="#472b29" d="M61.047,65.857c0.069,0,0.14,0.02,0.2,0.062c0.157,0.107,0.194,0.316,0.083,0.466 c-0.068,0.092-0.175,0.141-0.285,0.141c-0.069,0-0.14-0.02-0.2-0.062c-0.157-0.107-0.194-0.316-0.083-0.466 C60.831,65.907,60.937,65.857,61.047,65.857 M61.047,65.324c-0.281,0-0.548,0.133-0.713,0.358 c-0.14,0.19-0.195,0.422-0.156,0.653c0.039,0.233,0.171,0.435,0.368,0.569c0.148,0.101,0.321,0.155,0.501,0.155 c0.281,0,0.548-0.134,0.713-0.358c0.14-0.19,0.195-0.422,0.156-0.653c-0.039-0.229-0.174-0.437-0.368-0.569 C61.4,65.378,61.226,65.324,61.047,65.324L61.047,65.324z" />
    <g>
      <path fill="#472b29" d="M41.568,43.049c-0.146,0-0.265-0.117-0.267-0.264s0.117-0.268,0.264-0.269l27.827-0.236 c0.15-0.001,0.268,0.117,0.269,0.264c0.001,0.147-0.117,0.268-0.264,0.269L41.57,43.049 C41.569,43.049,41.568,43.049,41.568,43.049z" />
    </g>
    <g>
      <path fill="#472b29" d="M36.698,43.049c-0.146,0-0.265-0.117-0.267-0.264c-0.001-0.147,0.117-0.268,0.264-0.269 l2.782-0.023h0.001c0.147,0,0.267,0.117,0.267,0.264s-0.117,0.268-0.264,0.269l-2.782,0.023 C36.7,43.049,36.699,43.049,36.698,43.049z" />
    </g>
    <g>
      <path fill="#472b29" d="M35.306,46.395c-0.146,0-0.265-0.117-0.267-0.263c-0.001-0.148,0.116-0.269,0.264-0.27 l33.393-0.349c0,0,0.001,0,0.002,0c0.146,0,0.265,0.117,0.267,0.263c0.001,0.148-0.116,0.269-0.264,0.27l-33.393,0.349 C35.308,46.395,35.307,46.395,35.306,46.395z" />
    </g>
    <g>
      <path fill="#472b29" d="M35.995,50.033c-0.145,0-0.263-0.115-0.267-0.261c-0.003-0.147,0.113-0.269,0.261-0.272 l32.138-0.69c0.002,0,0.004,0,0.005,0c0.145,0,0.263,0.115,0.267,0.26c0.003,0.148-0.113,0.27-0.261,0.273l-32.137,0.69 C35.999,50.033,35.997,50.033,35.995,50.033z" />
    </g>
    <g>
      <path fill="#472b29" d="M60.98,53.039c-0.144,0-0.263-0.115-0.267-0.26c-0.003-0.147,0.113-0.27,0.26-0.273l4.5-0.104 c0.002,0,0.004,0,0.006,0c0.144,0,0.263,0.115,0.267,0.26c0.003,0.147-0.113,0.27-0.26,0.273l-4.5,0.104 C60.983,53.039,60.981,53.039,60.98,53.039z" />
    </g>
    <g>
      <path fill="#472b29" d="M36.69,53.6c-0.145,0-0.263-0.115-0.267-0.26c-0.003-0.147,0.113-0.27,0.26-0.273l22.114-0.511 c0.175-0.001,0.269,0.113,0.273,0.26c0.003,0.147-0.113,0.27-0.26,0.273L36.696,53.6C36.694,53.6,36.692,53.6,36.69,53.6z" />
    </g>
    <g>
      <path fill="#472b29" d="M35.949,64.598c-0.386,0-0.71-0.309-0.744-0.694c0,0-0.009-0.093-0.002-1.83 c0.013-3.099,4.373-5.185,4.558-5.273c0.373-0.173,0.817-0.015,0.992,0.357c0.176,0.373,0.016,0.818-0.356,0.994 c-1.027,0.486-3.695,2.138-3.701,3.929c-0.002,0.441-0.002,0.773-0.003,1.02l28.175-0.216c0.002,0,0.004,0,0.005,0 c0.409,0,0.743,0.33,0.746,0.741s-0.328,0.748-0.741,0.752L35.956,64.6C35.952,64.598,35.951,64.598,35.949,64.598z" />
    </g>
    <g>
      <path fill="#472b29" d="M63.155,56.478c-0.019,0-0.038-0.002-0.058-0.006c-0.144-0.032-0.235-0.174-0.203-0.318 l3.934-17.757c0.032-0.144,0.171-0.233,0.318-0.203c0.144,0.032,0.235,0.174,0.203,0.318l-3.934,17.757 C63.387,56.393,63.276,56.478,63.155,56.478z" />
    </g>
    <g>
      <path fill="#472b29" d="M59.996,56.478c-0.019,0-0.038-0.002-0.058-0.006c-0.144-0.032-0.235-0.174-0.203-0.318 l3.933-17.757c0.032-0.144,0.171-0.233,0.318-0.203c0.144,0.032,0.235,0.174,0.203,0.318l-3.933,17.757 C60.228,56.393,60.119,56.478,59.996,56.478z" />
    </g>
    <g>
      <path fill="#472b29" d="M56.837,56.478c-0.019,0-0.038-0.002-0.058-0.006c-0.144-0.032-0.235-0.174-0.203-0.318 l3.934-17.757c0.032-0.145,0.173-0.235,0.318-0.203c0.144,0.032,0.235,0.174,0.203,0.318l-3.934,17.757 C57.071,56.393,56.96,56.478,56.837,56.478z" />
    </g>
    <g>
      <path fill="#472b29" d="M54.091,56.478c-0.019,0-0.038-0.002-0.058-0.006c-0.144-0.032-0.235-0.174-0.203-0.318 l3.933-17.757c0.032-0.144,0.172-0.233,0.318-0.203c0.144,0.032,0.235,0.174,0.203,0.318l-3.933,17.757 C54.324,56.393,54.213,56.478,54.091,56.478z" />
    </g>
    <g>
      <path fill="#472b29" d="M51.932,51.966c-0.019,0-0.038-0.002-0.058-0.006c-0.144-0.032-0.235-0.174-0.203-0.318 l2.934-13.246c0.032-0.144,0.172-0.233,0.318-0.203c0.144,0.032,0.235,0.174,0.203,0.318l-2.934,13.246 C52.165,51.882,52.054,51.966,51.932,51.966z" />
    </g>
    <g>
      <path fill="#472b29" d="M50.042,46.24c-0.019,0-0.038-0.002-0.058-0.006c-0.144-0.032-0.235-0.174-0.203-0.318l1.665-7.52 c0.032-0.144,0.171-0.233,0.318-0.203c0.144,0.032,0.235,0.174,0.203,0.318l-1.665,7.52C50.275,46.156,50.165,46.24,50.042,46.24 z" />
    </g>
    <g>
      <path fill="#fdfcee" d="M63.524 55.90500000000001A8.281 8.281 0 1 0 63.524 72.46700000000001A8.281 8.281 0 1 0 63.524 55.90500000000001Z" />
      <path fill="#472b29" d="M63.524,73c-4.86,0-8.814-3.954-8.814-8.814s3.954-8.814,8.814-8.814s8.814,3.954,8.814,8.814 S68.384,73,63.524,73z M63.524,56.438c-4.272,0-7.748,3.475-7.748,7.748s3.475,7.748,7.748,7.748s7.748-3.475,7.748-7.748 S67.796,56.438,63.524,56.438z" />
      <path fill="#93bc39" d="M63.524 57.458000000000006A6.728 6.728 0 1 0 63.524 70.914A6.728 6.728 0 1 0 63.524 57.458000000000006Z" />
      <path fill="#472b29" d="M63.524,71.26c-3.901,0-7.074-3.174-7.074-7.074s3.174-7.075,7.074-7.075 c3.901,0,7.074,3.175,7.074,7.075C70.598,68.087,67.424,71.26,63.524,71.26z M63.524,57.805c-3.519,0-6.381,2.863-6.381,6.381 c0,3.518,2.862,6.38,6.381,6.38s6.381-2.862,6.381-6.38C69.905,60.668,67.043,57.805,63.524,57.805z" />
      <g>
        <path fill="#fdfcee" d="M66.408,63.945h-2.644v-2.644c0-0.132-0.108-0.24-0.24-0.24s-0.24,0.108-0.24,0.24v2.644h-2.644 c-0.132,0-0.24,0.108-0.24,0.24c0,0.132,0.108,0.24,0.24,0.24h2.644v2.644c0,0.132,0.108,0.24,0.24,0.24s0.24-0.108,0.24-0.24 v-2.644h2.644c0.132,0,0.24-0.108,0.24-0.24C66.648,64.053,66.541,63.945,66.408,63.945z" />
        <path fill="#472b29" d="M63.524,61.061c0.132,0,0.24,0.108,0.24,0.24v2.644h2.644c0.132,0,0.24,0.108,0.24,0.24 c0,0.132-0.108,0.24-0.24,0.24h-2.644v2.644c0,0.132-0.108,0.24-0.24,0.24s-0.24-0.108-0.24-0.24v-2.644H60.64 c-0.132,0-0.24-0.108-0.24-0.24c0-0.132,0.108-0.24,0.24-0.24h2.644v-2.644C63.284,61.169,63.391,61.061,63.524,61.061 M63.524,60.368c-0.515,0-0.933,0.419-0.933,0.933v1.951H60.64c-0.515,0-0.933,0.419-0.933,0.933 c0,0.514,0.419,0.933,0.933,0.933h1.951v1.951c0,0.515,0.419,0.933,0.933,0.933c0.514,0,0.933-0.419,0.933-0.933v-1.951h1.951 c0.515,0,0.933-0.419,0.933-0.933c0-0.514-0.419-0.933-0.933-0.933h-1.951v-1.951C64.457,60.786,64.038,60.368,63.524,60.368 L63.524,60.368z" />
      </g>
    </g>
  </g>
</svg>